<?xml version="1.0" encoding="UTF-8"?>
<svg xmlns="http://www.w3.org/2000/svg" xmlns:xlink="http://www.w3.org/1999/xlink"
     width="107" height="13" viewBox="0 -14 107 13">
<defs>
</defs>
<rect x="7.0" y="-6.0" width="1" height="1.8045633376684371" fill="red" />
<rect x="7.978947368421053" y="-6.0" width="1" height="2.51844864868617" fill="red" />
<rect x="8.957894736842105" y="-6.0" width="1" height="2.3554679757556394" fill="red" />
<rect x="9.936842105263159" y="-6.0" width="1" height="1.9424755481631202" fill="red" />
<rect x="10.91578947368421" y="-6.0" width="1" height="1.644746050628104" fill="red" />
<rect x="11.894736842105264" y="-6.0" width="1" height="1.6104522536338042" fill="red" />
<rect x="12.873684210526317" y="-6.0" width="1" height="1.8312889141642312" fill="red" />
<rect x="13.852631578947369" y="-6.0" width="1" height="2.204190121483577" fill="red" />
<rect x="14.83157894736842" y="-6.0" width="1" height="2.58531347946641" fill="red" />
<rect x="15.810526315789474" y="-6.0" width="1" height="2.831929971582468" fill="red" />
<rect x="16.789473684210527" y="-6.0" width="1" height="2.830933815151708" fill="red" />
<rect x="17.76842105263158" y="-6.0" width="1" height="2.5146836677079247" fill="red" />
<rect x="18.747368421052634" y="-6.0" width="1" height="1.8660646620818255" fill="red" />
<rect x="19.726315789473684" y="-6.0" width="1" height="0.9152337042267726" fill="red" />
<rect x="20.705263157894738" y="-6.269347731409134" width="1" height="0.2693477314091335" fill="green" />
<rect x="21.684210526315788" y="-7.5931388654504" width="1" height="1.5931388654504" fill="green" />
<rect x="22.66315789473684" y="-8.948879889141434" width="1" height="2.9488798891414336" fill="green" />
<rect x="23.642105263157895" y="-10.22939242788666" width="1" height="4.22939242788666" fill="green" />
<rect x="24.621052631578948" y="-11.338586898741772" width="1" height="5.338586898741772" fill="green" />
<rect x="25.6" y="-12.199892544251924" width="1" height="6.199892544251924" fill="green" />
<rect x="26.578947368421055" y="-12.761731396865681" width="1" height="6.761731396865681" fill="green" />
<rect x="27.557894736842105" y="-13.0" width="1" height="7.0" fill="green" />
<rect x="28.53684210526316" y="-12.917792506783918" width="1" height="6.917792506783917" fill="green" />
<rect x="29.51578947368421" y="-12.54279321644809" width="1" height="6.54279321644809" fill="green" />
<rect x="30.494736842105265" y="-11.92288858531395" width="1" height="5.922888585313951" fill="green" />
<rect x="31.47368421052632" y="-11.120605053111008" width="1" height="5.120605053111008" fill="green" />
<rect x="32.45263157894737" y="-10.206979032506549" width="1" height="4.206979032506549" fill="green" />
<rect x="33.43157894736842" y="-9.255419972565436" width="1" height="3.255419972565436" fill="green" />
<rect x="34.410526315789475" y="-8.3360479345654" width="1" height="2.336047934565401" fill="green" />
<rect x="35.38947368421053" y="-7.510884934200058" width="1" height="1.5108849342000574" fill="green" />
<rect x="36.368421052631575" y="-6.830164927282612" width="1" height="0.8301649272826124" fill="green" />
<rect x="37.347368421052636" y="-6.329910303722005" width="1" height="0.3299103037220047" fill="green" />
<rect x="38.32631578947368" y="-6.0308110862779625" width="1" height="0.03081108627796219" fill="green" />
<rect x="39.305263157894736" y="-6.0" width="1" height="0.06165668172006189" fill="red" />
<rect x="40.28421052631579" y="-6.0439801134910445" width="1" height="0.043980113491044776" fill="green" />
<rect x="41.26315789473684" y="-6.3272858661576" width="1" height="0.3272858661575997" fill="green" />
<rect x="42.242105263157896" y="-6.758642721336335" width="1" height="0.7586427213363351" fill="green" />
<rect x="43.22105263157895" y="-7.302338881788893" width="1" height="1.302338881788893" fill="green" />
<rect x="44.2" y="-7.919749468865168" width="1" height="1.9197494688651684" fill="green" />
<rect x="45.178947368421056" y="-8.57236052008183" width="1" height="2.57236052008183" fill="green" />
<rect x="46.15789473684211" y="-9.224422023692" width="1" height="3.224422023692" fill="green" />
<rect x="47.13684210526316" y="-9.845063219200819" width="1" height="3.8450632192008185" fill="green" />
<rect x="48.11578947368421" y="-10.409758827011043" width="1" height="4.409758827011043" fill="green" />
<rect x="49.09473684210526" y="-10.90109364375575" width="1" height="4.9010936437557495" fill="green" />
<rect x="50.07368421052632" y="-11.30883197538246" width="1" height="5.30883197538246" fill="green" />
<rect x="51.05263157894737" y="-11.629352896489983" width="1" height="5.629352896489984" fill="green" />
<rect x="52.03157894736842" y="-11.864558857156874" width="1" height="5.864558857156874" fill="green" />
<rect x="53.01052631578948" y="-12.020402823260035" width="1" height="6.020402823260034" fill="green" />
<rect x="53.98947368421053" y="-12.105201975032209" width="1" height="6.10520197503221" fill="green" />
<rect x="54.968421052631584" y="-12.127918026526473" width="1" height="6.127918026526473" fill="green" />
<rect x="55.94736842105264" y="-12.096578842513583" width="1" height="6.0965788425135825" fill="green" />
<rect x="56.92631578947368" y="-12.017000204611815" width="1" height="6.017000204611814" fill="green" />
<rect x="57.90526315789474" y="-11.891935670873982" width="1" height="5.891935670873982" fill="green" />
<rect x="58.88421052631579" y="-11.720742305058595" width="1" height="5.720742305058595" fill="green" />
<rect x="59.863157894736844" y="-11.4996026225723" width="1" height="5.4996026225723" fill="green" />
<rect x="60.8421052631579" y="-11.222290091887045" width="1" height="5.222290091887045" fill="green" />
<rect x="61.82105263157895" y="-10.881412643065662" width="1" height="4.881412643065663" fill="green" />
<rect x="62.800000000000004" y="-10.470018789248929" width="1" height="4.470018789248928" fill="green" />
<rect x="63.77894736842106" y="-9.983407742640008" width="1" height="3.9834077426400074" fill="green" />
<rect x="64.7578947368421" y="-9.420953886191441" width="1" height="3.4209538861914406" fill="green" />
<rect x="65.73684210526315" y="-8.78773593715433" width="1" height="2.7877359371543315" fill="green" />
<rect x="66.71578947368421" y="-8.095762124851634" width="1" height="2.0957621248516336" fill="green" />
<rect x="67.69473684210527" y="-7.364598687502099" width="1" height="1.3645986875020986" fill="green" />
<rect x="68.67368421052632" y="-6.621244091904629" width="1" height="0.6212440919046286" fill="green" />
<rect x="69.65263157894736" y="-6.0" width="1" height="0.1008521869324781" fill="red" />
<rect x="70.63157894736842" y="-6.0" width="1" height="0.763656392655288" fill="red" />
<rect x="71.61052631578947" y="-6.0" width="1" height="1.3272502351617446" fill="red" />
<rect x="72.58947368421053" y="-6.0" width="1" height="1.7532211697867401" fill="red" />
<rect x="73.56842105263158" y="-6.0" width="1" height="2.0084979293703" fill="red" />
<rect x="74.54736842105264" y="-6.0" width="1" height="2.0693109553138624" fill="red" />
<rect x="75.52631578947368" y="-6.0" width="1" height="1.9248763432601592" fill="red" />
<rect x="76.50526315789475" y="-6.0" width="1" height="1.5803597901208093" fill="red" />
<rect x="77.48421052631579" y="-6.0" width="1" height="1.05865700650258" fill="red" />
<rect x="78.46315789473685" y="-6.0" width="1" height="0.4005705657560297" fill="red" />
<rect x="79.4421052631579" y="-6.3369720074552935" width="1" height="0.33697200745529343" fill="green" />
<rect x="80.42105263157895" y="-7.084847819629095" width="1" height="1.0848478196290956" fill="green" />
<rect x="81.4" y="-7.767832598593477" width="1" height="1.767832598593477" fill="green" />
<rect x="82.37894736842105" y="-8.312585712037393" width="1" height="2.3125857120373934" fill="green" />
<rect x="83.35789473684211" y="-8.65696697739175" width="1" height="2.6569669773917504" fill="green" />
<rect x="84.33684210526316" y="-8.75977269897367" width="1" height="2.75977269897367" fill="green" />
<rect x="85.31578947368422" y="-8.609645114021664" width="1" height="2.6096451140216628" fill="green" />
<rect x="86.29473684210527" y="-8.231580984129671" width="1" height="2.2315809841296708" fill="green" />
<rect x="87.27368421052633" y="-7.689332484214785" width="1" height="1.689332484214785" fill="green" />
<rect x="88.25263157894737" y="-7.081826053535593" width="1" height="1.0818260535355937" fill="green" />
<rect x="89.23157894736842" y="-6.532174189834311" width="1" height="0.5321741898343112" fill="green" />
<rect x="90.21052631578948" y="-6.1683307102693385" width="1" height="0.1683307102693386" fill="green" />
<rect x="91.18947368421053" y="-6.095761440148736" width="1" height="0.09576144014873571" fill="green" />
<rect x="92.16842105263159" y="-6.364569436911446" width="1" height="0.36456943691144644" fill="green" />
<rect x="93.14736842105263" y="-6.936398960171625" width="1" height="0.9363989601716257" fill="green" />
<rect x="94.1263157894737" y="-7.660838294280909" width="1" height="1.6608382942809092" fill="green" />
<rect x="95.10526315789474" y="-8.277105665077725" width="1" height="2.2771056650777246" fill="green" />
<rect x="96.0842105263158" y="-8.464757932051622" width="1" height="2.4647579320516226" fill="green" />
<rect x="97.06315789473685" y="-7.9777332051900025" width="1" height="1.977733205190003" fill="green" />
<rect x="98.0421052631579" y="-6.910024099124184" width="1" height="0.9100240991241839" fill="green" />
<rect x="99.02105263157895" y="-6.158334054729228" width="1" height="0.15833405472922849" fill="green" />
<rect x="100.0" y="-8.169659684384202" width="1" height="2.1696596843842024" fill="green" />
<path d="M107,-6 L0,-6" stroke="white" stroke-width="0.5" fill="none" />
</svg>