<?xml version="1.0" encoding="UTF-8"?>
<svg xmlns="http://www.w3.org/2000/svg" xmlns:xlink="http://www.w3.org/1999/xlink"
     width="107" height="13" viewBox="0 -12 107 13">
<defs>
</defs>
<path d="M7.0,-2.7435023155371727 L7.958762886597938,-2.1212133043970964 L8.917525773195877,-2.40988499358244 L9.876288659793815,-2.75199262347728 L10.835051546391753,-2.864248620999423 L11.793814432989691,-2.7489687022740337 L12.75257731958763,-2.5187189410055213 L13.711340206185568,-2.298725555112068 L14.670103092783506,-2.180527468550468 L15.628865979381443,-2.20750387411919 L16.587628865979383,-2.378519765962345 L17.54639175257732,-2.6602666642360058 L18.50515463917526,-3.002162656386317 L19.463917525773198,-3.3501124594136744 L20.422680412371136,-3.6571828007426195 L21.381443298969074,-3.8904638222020353 L22.340206185567013,-4.034183589115338 L23.298969072164947,-4.0896203459242395 L24.257731958762886,-4.072598575104626 L25.216494845360824,-4.009427599083506 L26.175257731958762,-3.9320995752120713 L27.1340206185567,-3.873450026865492 L28.09278350515464,-3.8628315668746147 L29.051546391752577,-3.9226850096407233 L30.010309278350515,-4.0662295612229435 L30.969072164948454,-4.296347457601805 L31.927835051546392,-4.605615935969288 L32.886597938144334,-4.977344707121099 L33.84536082474227,-5.387411217938909 L34.80412371134021,-5.806647900367377 L35.76288659793815,-6.203522660473338 L36.72164948453609,-6.546862398557968 L37.680412371134025,-6.808395143959664 L38.639175257731964,-6.9649248906310435 L39.597938144329895,-7.0 L40.55670103092783,-6.904986862831082 L41.51546391752577,-6.679511603421729 L42.47422680412371,-6.331280722589074 L43.43298969072165,-5.875334111418891 L44.391752577319586,-5.332818821562833 L45.350515463917525,-4.729398020077398 L46.30927835051546,-4.093426074524328 L47.2680412371134,-3.454027520805132 L48.22680412371134,-2.8392152696730153 L49.18556701030928,-2.2741727494961648 L50.144329896907216,-1.779806597391611 L51.103092783505154,-1.3716532525693534 L52.06185567010309,-1.0591957152424893 L53.02061855670103,-0.845616690206408 L53.97938144329897,-0.727985599867041 L54.93814432989691,-0.6978480183302898 L55.896907216494846,-0.7421611894038306 L56.855670103092784,-0.8444988073589428 L57.81443298969072,-0.986432239822783 L58.77319587628866,-1.1489866401990547 L59.7319587628866,-1.3140675354472695 L60.69072164948454,-1.465758886176541 L61.649484536082475,-1.5914008597929903 L62.608247422680414,-1.68237606358573 L63.56701030927835,-1.7345510271877826 L64.5257731958763,-1.7483441814815437 L65.48453608247422,-1.7284205168015463 L66.44329896907217,-1.6830382109318862 L67.4020618556701,-1.6230988065522867 L68.36082474226805,-1.56097554708959 L69.31958762886597,-1.5092138980423675 L70.27835051546393,-1.479210428770436 L71.23711340206185,-1.4799787445485009 L72.19587628865979,-1.517116730579843 L73.15463917525773,-1.5920657474441524 L74.11340206185567,-1.701747229066659 L75.0721649484536,-1.8386262544213257 L76.03092783505154,-1.9912167792031283 L76.98969072164948,-2.1450201528532706 L77.94845360824742,-2.2838196197394764 L78.90721649484536,-2.3912576992141563 L79.8659793814433,-2.45253333903514 L80.82474226804123,-2.4560749529692347 L81.78350515463917,-2.3950117837272917 L82.74226804123711,-2.268245575170839 L83.70103092783505,-2.0809786757403894 L84.65979381443299,-1.8445590388219442 L85.61855670103093,-1.575578634668453 L86.57731958762886,-1.294235436345687 L87.5360824742268,-1.0220728179429788 L88.49484536082474,-0.7793128534230555 L89.45360824742268,-0.5820995969350473 L90.41237113402062,-0.4401179693660505 L91.37113402061856,-0.3550101940018605 L92.3298969072165,-0.3201302792736858 L93.28865979381443,-0.3219724909071088 L94.24742268041237,-0.3434035236979884 L95.20618556701031,-0.36832735801404504 L96.16494845360825,-0.3866928946666587 L97.12371134020619,-0.39759990699158493 L98.08247422680412,-0.4066369510520287 L99.04123711340206,-0.41140077622908733 L100.0,-0.3661346718381742" fill="transparent" stroke="#007ec6" stroke-width="1" stroke-linejoin="round" />
</svg>