<svg version="1.1" xmlns="http://www.w3.org/2000/svg" viewBox="0 0 1520.848484848485 877" width="1520.848484848485" height="877" filter="invert(93%) hue-rotate(180deg)">
  <!-- svg-source:excalidraw -->
  
  <defs>
    <style class="style-fonts">
      @font-face {
        font-family: "Virgil";
        src: url("https://excalidraw.com/Virgil.woff2");
      }
      @font-face {
        font-family: "Cascadia";
        src: url("https://excalidraw.com/Cascadia.woff2");
      }
    </style>
  </defs>
  <rect x="0" y="0" width="1520.848484848485" height="877" fill="#ffffff"></rect><g stroke-linecap="round" transform="translate(680.4015151515149 304.86363636363626) rotate(0 106 55)"><path d="M0 0 C61.47 0, 122.95 0, 212 0 M0 0 C81.1 0, 162.2 0, 212 0 M212 0 C212 39.62, 212 79.24, 212 110 M212 0 C212 41.67, 212 83.34, 212 110 M212 110 C137.54 110, 63.09 110, 0 110 M212 110 C145.42 110, 78.84 110, 0 110 M0 110 C0 70.05, 0 30.09, 0 0 M0 110 C0 87.43, 0 64.85, 0 0" stroke="#000000" stroke-width="1" fill="none"></path></g><g transform="translate(694.5515166773938 343.06363636363625) rotate(0 91.8499984741211 16.80000000000001)"><text x="91.8499984741211" y="0" font-family="Helvetica, Segoe UI Emoji" font-size="28px" fill="#000000" text-anchor="middle" style="white-space: pre;" direction="ltr" dominant-baseline="text-before-edge">Project Activity</text></g><g stroke-linecap="round" transform="translate(1114.689393939395 242.9545454545455) rotate(0 110 57.5)"><path d="M0 0 C49.07 0, 98.15 0, 220 0 M0 0 C75.56 0, 151.13 0, 220 0 M220 0 C220 32.05, 220 64.1, 220 115 M220 0 C220 31.08, 220 62.17, 220 115 M220 115 C157.14 115, 94.29 115, 0 115 M220 115 C175.9 115, 131.79 115, 0 115 M0 115 C0 72.35, 0 29.71, 0 0 M0 115 C0 82.92, 0 50.84, 0 0" stroke="#000000" stroke-width="1" fill="none"></path></g><g transform="translate(1165.5093936342191 283.6545454545455) rotate(0 59.18000030517578 16.799999999999997)"><text x="59.18000030517578" y="0" font-family="Helvetica, Segoe UI Emoji" font-size="28px" fill="#000000" text-anchor="middle" style="white-space: pre;" direction="ltr" dominant-baseline="text-before-edge">CI Server</text></g><g stroke-linecap="round" transform="translate(1075.916666666667 485.5) rotate(0 71.5 43.5)"><path d="M0 0 C42.7 0, 85.39 0, 143 0 M0 0 C49.27 0, 98.55 0, 143 0 M143 0 C143 32.32, 143 64.63, 143 87 M143 0 C143 24.89, 143 49.77, 143 87 M143 87 C93.86 87, 44.72 87, 0 87 M143 87 C108.42 87, 73.83 87, 0 87 M0 87 C0 59.55, 0 32.1, 0 0 M0 87 C0 53.24, 0 19.48, 0 0" stroke="#c92a2a" stroke-width="1" fill="none"></path></g><g transform="translate(1083.4066645304365 512.2) rotate(0 64.01000213623047 16.80000000000001)"><text x="64.01000213623047" y="0" font-family="Helvetica, Segoe UI Emoji" font-size="28px" fill="#c92a2a" text-anchor="middle" style="white-space: pre;" direction="ltr" dominant-baseline="text-before-edge">Workflows</text></g><g stroke-linecap="round" transform="translate(1386.6818181818185 395.08333333333337) rotate(0 62.08333333333326 43.333333333333314)"><path d="M0 0 C35.08 0, 70.15 0, 124.17 0 M0 0 C32.43 0, 64.87 0, 124.17 0 M124.17 0 C124.17 23.34, 124.17 46.67, 124.17 86.67 M124.17 0 C124.17 19.82, 124.17 39.64, 124.17 86.67 M124.17 86.67 C91.7 86.67, 59.23 86.67, 0 86.67 M124.17 86.67 C89.72 86.67, 55.27 86.67, 0 86.67 M0 86.67 C0 53.75, 0 20.83, 0 0 M0 86.67 C0 67.8, 0 48.93, 0 0" stroke="#2b8a3e" stroke-width="1" fill="none"></path></g><g transform="translate(1416.2251505996242 421.6166666666667) rotate(0 32.540000915527344 16.80000000000001)"><text x="32.540000915527344" y="0" font-family="Helvetica, Segoe UI Emoji" font-size="28px" fill="#2b8a3e" text-anchor="middle" style="white-space: pre;" direction="ltr" dominant-baseline="text-before-edge">Runs</text></g><g stroke-linecap="round" transform="translate(1251.318181818182 503.8863636363635) rotate(0 62.08333333333326 43.333333333333314)"><path d="M0 0 C33.91 0, 67.83 0, 124.17 0 M0 0 C26.45 0, 52.9 0, 124.17 0 M124.17 0 C124.17 22.3, 124.17 44.61, 124.17 86.67 M124.17 0 C124.17 23.68, 124.17 47.36, 124.17 86.67 M124.17 86.67 C92.9 86.67, 61.64 86.67, 0 86.67 M124.17 86.67 C81.09 86.67, 38 86.67, 0 86.67 M0 86.67 C0 56.81, 0 26.95, 0 0 M0 86.67 C0 53.57, 0 20.48, 0 0" stroke="#c92a2a" stroke-width="1" fill="none"></path></g><g transform="translate(1283.8415156855726 530.4196969696968) rotate(0 29.559999465942383 16.80000000000001)"><text x="29.559999465942383" y="0" font-family="Helvetica, Segoe UI Emoji" font-size="28px" fill="#c92a2a" text-anchor="middle" style="white-space: pre;" direction="ltr" dominant-baseline="text-before-edge">Jobs</text></g><g stroke-linecap="round"><g transform="translate(1219.9471440456514 358.95839160839165) rotate(0 -33.36172540807206 61.17945804195793)"><path d="M0 0 C-17.8 32.64, -35.6 65.28, -66.72 122.36 M0 0 C-23.23 42.6, -46.46 85.21, -66.72 122.36" stroke="#000000" stroke-width="1" fill="none"></path></g></g><mask></mask><g stroke-linecap="round"><g transform="translate(1223.4444580683976 360.28787878787887) rotate(0 82.25883157186195 39.924269547247945)"><path d="M0 0 C36.71 17.82, 73.42 35.64, 164.52 79.85 M0 0 C53.96 26.19, 107.91 52.37, 164.52 79.85" stroke="#000000" stroke-width="1" fill="none"></path></g></g><mask></mask><g stroke-linecap="round"><g transform="translate(1220.3260024621018 359.95454545454555) rotate(0 49.01969269421397 70.17424242424241)"><path d="M0 0 C22.69 32.47, 45.37 64.95, 98.04 140.35 M0 0 C30.48 43.64, 60.96 87.27, 98.04 140.35" stroke="#000000" stroke-width="1" fill="none"></path></g></g><mask></mask><g stroke-linecap="round" transform="translate(686.3257575757578 611.7878787878785) rotate(0 105 55.5)"><path d="M0 0 C78.81 0, 157.63 0, 210 0 M0 0 C49.85 0, 99.7 0, 210 0 M210 0 C210 42.89, 210 85.77, 210 111 M210 0 C210 36.37, 210 72.75, 210 111 M210 111 C141.38 111, 72.76 111, 0 111 M210 111 C146.75 111, 83.49 111, 0 111 M0 111 C0 86.31, 0 61.62, 0 0 M0 111 C0 79.19, 0 47.38, 0 0" stroke="#2b8a3e" stroke-width="1" fill="none"></path></g><g transform="translate(750.8957572705821 650.4878787878786) rotate(0 40.43000030517578 16.80000000000001)"><text x="40.43000030517578" y="0" font-family="Helvetica, Segoe UI Emoji" font-size="28px" fill="#2b8a3e" text-anchor="middle" style="white-space: pre;" direction="ltr" dominant-baseline="text-before-edge">Issues</text></g><g stroke-linecap="round" transform="translate(912.8030303030308 570.871212121212) rotate(0 60.5 42.5)"><path d="M0 0 C36.2 0, 72.41 0, 121 0 M0 0 C25.86 0, 51.73 0, 121 0 M121 0 C121 33.42, 121 66.84, 121 85 M121 0 C121 20.86, 121 41.71, 121 85 M121 85 C81.76 85, 42.52 85, 0 85 M121 85 C89.57 85, 58.14 85, 0 85 M0 85 C0 57.78, 0 30.56, 0 0 M0 85 C0 56.23, 0 27.46, 0 0" stroke="#2b8a3e" stroke-width="1" fill="none"></path></g><g transform="translate(918.123029997855 596.571212121212) rotate(0 55.18000030517578 16.799999999999983)"><text x="55.18000030517578" y="0" font-family="Helvetica, Segoe UI Emoji" font-size="28px" fill="#2b8a3e" text-anchor="middle" style="white-space: pre;" direction="ltr" dominant-baseline="text-before-edge">Commits</text></g><g stroke-linecap="round" transform="translate(156.84090909090924 292.24242424242425) rotate(0 106 55)"><path d="M0 0 C57.98 0, 115.95 0, 212 0 M0 0 C84.16 0, 168.31 0, 212 0 M212 0 C212 23.55, 212 47.1, 212 110 M212 0 C212 28.54, 212 57.09, 212 110 M212 110 C139.44 110, 66.88 110, 0 110 M212 110 C164.12 110, 116.23 110, 0 110 M0 110 C0 84.25, 0 58.51, 0 0 M0 110 C0 84.27, 0 58.55, 0 0" stroke="#000000" stroke-width="1" fill="none"></path></g><g transform="translate(181.63091000643658 330.44242424242424) rotate(0 81.20999908447266 16.80000000000001)"><text x="81.20999908447266" y="0" font-family="Helvetica, Segoe UI Emoji" font-size="28px" fill="#000000" text-anchor="middle" style="white-space: pre;" direction="ltr" dominant-baseline="text-before-edge">Code Quality</text></g><g stroke-linecap="round" transform="translate(10 445.5954545454547) rotate(0 68 55.5)"><path d="M0 0 C48.98 0, 97.97 0, 136 0 M0 0 C51.52 0, 103.03 0, 136 0 M136 0 C136 38.98, 136 77.97, 136 111 M136 0 C136 34.86, 136 69.72, 136 111 M136 111 C86.6 111, 37.21 111, 0 111 M136 111 C108.09 111, 80.18 111, 0 111 M0 111 C0 70.18, 0 29.37, 0 0 M0 111 C0 83.32, 0 55.65, 0 0" stroke="#2b8a3e" stroke-width="1" fill="none"></path></g><g transform="translate(18.099998474121094 467.49545454545466) rotate(0 59.900001525878906 33.599999999999994)"><text x="59.900001525878906" y="0" font-family="Helvetica, Segoe UI Emoji" font-size="28px" fill="#2b8a3e" text-anchor="middle" style="white-space: pre;" direction="ltr" dominant-baseline="text-before-edge">Test </text><text x="59.900001525878906" y="33.6" font-family="Helvetica, Segoe UI Emoji" font-size="28px" fill="#2b8a3e" text-anchor="middle" style="white-space: pre;" direction="ltr" dominant-baseline="text-before-edge">Coverage</text></g><g stroke-linecap="round" transform="translate(550.2575757575759 492.37121212121224) rotate(0 45.41666666666663 42.08333333333334)"><path d="M0 0 C25.32 0, 50.63 0, 90.83 0 M0 0 C24.55 0, 49.1 0, 90.83 0 M90.83 0 C90.83 24.05, 90.83 48.09, 90.83 84.17 M90.83 0 C90.83 16.87, 90.83 33.75, 90.83 84.17 M90.83 84.17 C57.15 84.17, 23.46 84.17, 0 84.17 M90.83 84.17 C65.5 84.17, 40.16 84.17, 0 84.17 M0 84.17 C0 63.3, 0 42.43, 0 0 M0 84.17 C0 61.85, 0 39.53, 0 0" stroke="#827901" stroke-width="1" fill="none"></path></g><g transform="translate(560.9342407457757 517.6545454545455) rotate(0 34.7400016784668 16.80000000000001)"><text x="34.7400016784668" y="0" font-family="Helvetica, Segoe UI Emoji" font-size="28px" fill="#827901" text-anchor="middle" style="white-space: pre;" direction="ltr" dominant-baseline="text-before-edge">Forks</text></g><g stroke-linecap="round" transform="translate(944.1818181818186 444.23484848484827) rotate(0 45.41666666666663 42.08333333333334)"><path d="M0 0 C33.74 0, 67.48 0, 90.83 0 M0 0 C25.98 0, 51.97 0, 90.83 0 M90.83 0 C90.83 28.92, 90.83 57.84, 90.83 84.17 M90.83 0 C90.83 20.36, 90.83 40.71, 90.83 84.17 M90.83 84.17 C62.18 84.17, 33.52 84.17, 0 84.17 M90.83 84.17 C55.59 84.17, 20.34 84.17, 0 84.17 M0 84.17 C0 51.34, 0 18.52, 0 0 M0 84.17 C0 63.16, 0 42.15, 0 0" stroke="#2b8a3e" stroke-width="1" fill="none"></path></g><g transform="translate(963.6384857640127 469.51818181818163) rotate(0 25.959999084472656 16.80000000000001)"><text x="25.959999084472656" y="0" font-family="Helvetica, Segoe UI Emoji" font-size="28px" fill="#2b8a3e" text-anchor="middle" style="white-space: pre;" direction="ltr" dominant-baseline="text-before-edge">PRs</text></g><g stroke-linecap="round" transform="translate(575.9545454545461 607.7196969696975) rotate(0 45.41666666666663 42.08333333333337)"><path d="M0 0 C24.46 0, 48.92 0, 90.83 0 M0 0 C20.77 0, 41.55 0, 90.83 0 M90.83 0 C90.83 22.01, 90.83 44.01, 90.83 84.17 M90.83 0 C90.83 23.35, 90.83 46.7, 90.83 84.17 M90.83 84.17 C56.33 84.17, 21.83 84.17, 0 84.17 M90.83 84.17 C71.06 84.17, 51.28 84.17, 0 84.17 M0 84.17 C0 62, 0 39.83, 0 0 M0 84.17 C0 63.69, 0 43.22, 0 0" stroke="#827901" stroke-width="1" fill="none"></path></g><g transform="translate(588.7212105953338 633.0030303030308) rotate(0 32.650001525878906 16.80000000000001)"><text x="32.650001525878906" y="0" font-family="Helvetica, Segoe UI Emoji" font-size="28px" fill="#827901" text-anchor="middle" style="white-space: pre;" direction="ltr" dominant-baseline="text-before-edge">Stars</text></g><g stroke-linecap="round"><g transform="translate(787.2585028544573 415.8654414177879) rotate(0 -0.2588861760683585 95.15003502269366)"><path d="M0 0 C-0.13 48.97, -0.27 97.94, -0.52 190.3 M0 0 C-0.14 52, -0.28 104, -0.52 190.3" stroke="#000000" stroke-width="1" fill="none"></path></g></g><mask></mask><g stroke-linecap="round"><g transform="translate(789.021917485764 417.90909090909076) rotate(0 -72.46171631863945 55.50126133758573)"><path d="M0 0 C-49.36 37.81, -98.72 75.61, -144.92 111 M0 0 C-36.44 27.91, -72.87 55.81, -144.92 111" stroke="#000000" stroke-width="1" fill="none"></path></g></g><mask></mask><g stroke-linecap="round"><g transform="translate(786.9187712907737 417.86363636363626) rotate(0 76.85934353105921 28.770857797064764)"><path d="M0 0 C32.19 12.05, 64.38 24.1, 153.72 57.54 M0 0 C36.28 13.58, 72.56 27.16, 153.72 57.54" stroke="#000000" stroke-width="1" fill="none"></path></g></g><mask></mask><g stroke-linecap="round" transform="translate(649.3257575757576 95.72727272727275) rotate(0 130.45454545454544 38.18181818181818)"><path d="M0 0 C79.65 0, 159.3 0, 260.91 0 M0 0 C58.8 0, 117.6 0, 260.91 0 M260.91 0 C260.91 23.1, 260.91 46.2, 260.91 76.36 M260.91 0 C260.91 25.64, 260.91 51.27, 260.91 76.36 M260.91 76.36 C184.13 76.36, 107.36 76.36, 0 76.36 M260.91 76.36 C203.34 76.36, 145.76 76.36, 0 76.36 M0 76.36 C0 50.98, 0 25.6, 0 0 M0 76.36 C0 47.36, 0 18.37, 0 0" stroke="#000000" stroke-width="1" fill="none"></path></g><g transform="translate(671.9621212121214 117.83636363636364) rotate(0 101.62999725341797 16.799999999999997)"><text x="0" y="0" font-family="Helvetica, Segoe UI Emoji" font-size="28px" fill="#000000" text-anchor="start" style="white-space: pre;" direction="ltr" dominant-baseline="text-before-edge">Sparkbadge API</text></g><g stroke-linecap="round"><g transform="translate(783.8577764375815 175.09090909090912) rotate(0 -0.6159713007552909 64.38636363636357)"><path d="M0 0 C-0.48 50.63, -0.97 101.25, -1.23 128.77 M0 0 C-0.3 31.6, -0.6 63.2, -1.23 128.77" stroke="#000000" stroke-width="1" fill="none"></path></g></g><mask></mask><g stroke-linecap="round"><g transform="translate(767.8211914202708 172.09090909090912) rotate(0 -196.14165631619593 64.58754342313145)"><path d="M0 0 C-83.99 27.66, -167.97 55.31, -392.28 129.18 M0 0 C-101.8 33.52, -203.59 67.04, -392.28 129.18" stroke="#000000" stroke-width="1" fill="none"></path></g></g><mask></mask><g stroke-linecap="round"><g transform="translate(807.4088205973181 173.09090909090912) rotate(0 151.7084684892202 41.43644840646686)"><path d="M0 0 C106.56 29.11, 213.13 58.21, 303.42 82.87 M0 0 C95.29 26.03, 190.58 52.05, 303.42 82.87" stroke="#000000" stroke-width="1" fill="none"></path></g></g><mask></mask><g stroke-linecap="round" transform="translate(405.96212121212136 418.72727272727275) rotate(0 49.5 38.5)"><path d="M0 0 C28.29 0, 56.57 0, 99 0 M0 0 C19.85 0, 39.69 0, 99 0 M99 0 C99 28.55, 99 57.11, 99 77 M99 0 C99 21.48, 99 42.96, 99 77 M99 77 C74.45 77, 49.91 77, 0 77 M99 77 C72.75 77, 46.5 77, 0 77 M0 77 C0 54.69, 0 32.39, 0 0 M0 77 C0 53.03, 0 29.06, 0 0" stroke="#2b8a3e" stroke-width="1" fill="none"></path></g><g transform="translate(429.93212052547585 440.42727272727274) rotate(0 25.530000686645508 16.80000000000001)"><text x="25.530000686645508" y="0" font-family="Helvetica, Segoe UI Emoji" font-size="28px" fill="#2b8a3e" text-anchor="middle" style="white-space: pre;" direction="ltr" dominant-baseline="text-before-edge">LoC</text></g><g stroke-linecap="round" transform="translate(50.416666666666856 633.909090909091) rotate(0 63 43)"><path d="M0 0 C43.3 0, 86.6 0, 126 0 M0 0 C30.47 0, 60.95 0, 126 0 M126 0 C126 27.13, 126 54.26, 126 86 M126 0 C126 33.37, 126 66.74, 126 86 M126 86 C76.86 86, 27.72 86, 0 86 M126 86 C94.55 86, 63.1 86, 0 86 M0 86 C0 64.96, 0 43.93, 0 0 M0 86 C0 53.44, 0 20.88, 0 0" stroke="#c92a2a" stroke-width="1" fill="none"></path></g><g transform="translate(62.63666788736998 660.109090909091) rotate(0 50.779998779296875 16.80000000000001)"><text x="50.779998779296875" y="0" font-family="Helvetica, Segoe UI Emoji" font-size="28px" fill="#c92a2a" text-anchor="middle" style="white-space: pre;" direction="ltr" dominant-baseline="text-before-edge">Security</text></g><g stroke-linecap="round" transform="translate(300.78030303030323 521.4545454545455) rotate(0 92 43.5)"><path d="M0 0 C48.11 0, 96.22 0, 184 0 M0 0 C51.05 0, 102.1 0, 184 0 M184 0 C184 33.05, 184 66.09, 184 87 M184 0 C184 18.94, 184 37.88, 184 87 M184 87 C135.54 87, 87.07 87, 0 87 M184 87 C139.25 87, 94.49 87, 0 87 M0 87 C0 57.31, 0 27.62, 0 0 M0 87 C0 60.11, 0 33.23, 0 0" stroke="#827901" stroke-width="1" fill="none"></path></g><g transform="translate(312.80029967336964 548.1545454545455) rotate(0 79.9800033569336 16.80000000000001)"><text x="79.9800033569336" y="0" font-family="Helvetica, Segoe UI Emoji" font-size="28px" fill="#827901" text-anchor="middle" style="white-space: pre;" direction="ltr" dominant-baseline="text-before-edge">Performance</text></g><g stroke-linecap="round"><g transform="translate(245.05495449833916 402.36566021223064) rotate(0 -69.74415065155601 20.0780371403566)"><path d="M0 0 C-35.12 10.11, -70.25 20.22, -139.49 40.16 M0 0 C-48.4 13.93, -96.79 27.87, -139.49 40.16" stroke="#000000" stroke-width="1" fill="none"></path></g></g><mask></mask><g stroke-linecap="round"><g transform="translate(251.78468161062779 403.3636363636364) rotate(0 76.58871980074679 10.359295222284487)"><path d="M0 0 C56.5 7.64, 113 15.28, 153.18 20.72 M0 0 C42.13 5.7, 84.26 11.4, 153.18 20.72" stroke="#000000" stroke-width="1" fill="none"></path></g></g><mask></mask><g stroke-linecap="round"><g transform="translate(250.23740857167724 406.24242424242425) rotate(0 -68.86485945136651 113.33333333333337)"><path d="M0 0 C-51.55 84.83, -103.09 169.66, -137.73 226.67 M0 0 C-48.96 80.57, -97.91 161.14, -137.73 226.67" stroke="#000000" stroke-width="1" fill="none"></path></g></g><mask></mask><g stroke-linecap="round"><g transform="translate(249.9602774852736 404.4545454545454) rotate(0 65.62151758674912 57.95454545454544)"><path d="M0 0 C39.7 35.07, 79.41 70.13, 131.24 115.91 M0 0 C44.06 38.91, 88.12 77.82, 131.24 115.91" stroke="#000000" stroke-width="1" fill="none"></path></g></g><mask></mask><g stroke-linecap="round"><g transform="translate(788.8003101326589 417) rotate(0 89.90453749514086 74.6706905016656)"><path d="M0 0 C58.76 48.8, 117.51 97.6, 179.81 149.34 M0 0 C54.16 44.98, 108.32 89.96, 179.81 149.34" stroke="#000000" stroke-width="1" fill="none"></path></g></g><mask></mask><g stroke-linecap="round"><g transform="translate(785.553138467497 419) rotate(0 -80.24545582547478 93.85984848484873)"><path d="M0 0 C-52.05 60.88, -104.09 121.75, -160.49 187.72 M0 0 C-41.69 48.76, -83.37 97.52, -160.49 187.72" stroke="#000000" stroke-width="1" fill="none"></path></g></g><mask></mask><g stroke-linecap="round" transform="translate(986.9621212121214 155) rotate(0 12 11)"><path d="M24 11 C24 11.64, 23.94 12.28, 23.82 12.91 C23.7 13.54, 23.51 14.16, 23.28 14.76 C23.04 15.36, 22.74 15.95, 22.39 16.5 C22.05 17.05, 21.64 17.58, 21.19 18.07 C20.75 18.56, 20.25 19.02, 19.71 19.43 C19.18 19.84, 18.6 20.21, 18 20.53 C17.4 20.84, 16.76 21.12, 16.1 21.34 C15.45 21.55, 14.77 21.72, 14.08 21.83 C13.4 21.94, 12.69 22, 12 22 C11.31 22, 10.6 21.94, 9.92 21.83 C9.23 21.72, 8.55 21.55, 7.9 21.34 C7.24 21.12, 6.6 20.84, 6 20.53 C5.4 20.21, 4.82 19.84, 4.29 19.43 C3.75 19.02, 3.25 18.56, 2.81 18.07 C2.36 17.58, 1.95 17.05, 1.61 16.5 C1.26 15.95, 0.96 15.36, 0.72 14.76 C0.49 14.16, 0.3 13.54, 0.18 12.91 C0.06 12.28, 0 11.64, 0 11 C0 10.36, 0.06 9.72, 0.18 9.09 C0.3 8.46, 0.49 7.84, 0.72 7.24 C0.96 6.64, 1.26 6.05, 1.61 5.5 C1.95 4.95, 2.36 4.42, 2.81 3.93 C3.25 3.44, 3.75 2.98, 4.29 2.57 C4.82 2.16, 5.4 1.79, 6 1.47 C6.6 1.16, 7.24 0.88, 7.9 0.66 C8.55 0.45, 9.23 0.28, 9.92 0.17 C10.6 0.06, 11.31 0, 12 0 C12.69 0, 13.4 0.06, 14.08 0.17 C14.77 0.28, 15.45 0.45, 16.1 0.66 C16.76 0.88, 17.4 1.16, 18 1.47 C18.6 1.79, 19.18 2.16, 19.71 2.57 C20.25 2.98, 20.75 3.44, 21.19 3.93 C21.64 4.42, 22.05 4.95, 22.39 5.5 C22.74 6.05, 23.04 6.64, 23.28 7.24 C23.51 7.84, 23.7 8.46, 23.82 9.09 C23.94 9.72, 23.97 10.68, 24 11 C24.03 11.32, 24.03 10.68, 24 11" stroke="none" stroke-width="0" fill="#fa5252"></path><path d="M24 11 C24 11.64, 23.94 12.28, 23.82 12.91 C23.7 13.54, 23.51 14.16, 23.28 14.76 C23.04 15.36, 22.74 15.95, 22.39 16.5 C22.05 17.05, 21.64 17.58, 21.19 18.07 C20.75 18.56, 20.25 19.02, 19.71 19.43 C19.18 19.84, 18.6 20.21, 18 20.53 C17.4 20.84, 16.76 21.12, 16.1 21.34 C15.45 21.55, 14.77 21.72, 14.08 21.83 C13.4 21.94, 12.69 22, 12 22 C11.31 22, 10.6 21.94, 9.92 21.83 C9.23 21.72, 8.55 21.55, 7.9 21.34 C7.24 21.12, 6.6 20.84, 6 20.53 C5.4 20.21, 4.82 19.84, 4.29 19.43 C3.75 19.02, 3.25 18.56, 2.81 18.07 C2.36 17.58, 1.95 17.05, 1.61 16.5 C1.26 15.95, 0.96 15.36, 0.72 14.76 C0.49 14.16, 0.3 13.54, 0.18 12.91 C0.06 12.28, 0 11.64, 0 11 C0 10.36, 0.06 9.72, 0.18 9.09 C0.3 8.46, 0.49 7.84, 0.72 7.24 C0.96 6.64, 1.26 6.05, 1.61 5.5 C1.95 4.95, 2.36 4.42, 2.81 3.93 C3.25 3.44, 3.75 2.98, 4.29 2.57 C4.82 2.16, 5.4 1.79, 6 1.47 C6.6 1.16, 7.24 0.88, 7.9 0.66 C8.55 0.45, 9.23 0.28, 9.92 0.17 C10.6 0.06, 11.31 0, 12 0 C12.69 0, 13.4 0.06, 14.08 0.17 C14.77 0.28, 15.45 0.45, 16.1 0.66 C16.76 0.88, 17.4 1.16, 18 1.47 C18.6 1.79, 19.18 2.16, 19.71 2.57 C20.25 2.98, 20.75 3.44, 21.19 3.93 C21.64 4.42, 22.05 4.95, 22.39 5.5 C22.74 6.05, 23.04 6.64, 23.28 7.24 C23.51 7.84, 23.7 8.46, 23.82 9.09 C23.94 9.72, 23.97 10.68, 24 11 C24.03 11.32, 24.03 10.68, 24 11" stroke="#000000" stroke-width="1" fill="none"></path></g><g transform="translate(1021.9621212121214 154) rotate(0 25.3700008392334 16.799999999999997)"><text x="0" y="0" font-family="Helvetica, Segoe UI Emoji" font-size="28px" fill="#000000" text-anchor="start" style="white-space: pre;" direction="ltr" dominant-baseline="text-before-edge">Low</text></g><g stroke-linecap="round" transform="translate(986.7821209069456 108.2) rotate(0 12 11)"><path d="M24 11 C24 11.64, 23.94 12.28, 23.82 12.91 C23.7 13.54, 23.51 14.16, 23.28 14.76 C23.04 15.36, 22.74 15.95, 22.39 16.5 C22.05 17.05, 21.64 17.58, 21.19 18.07 C20.75 18.56, 20.25 19.02, 19.71 19.43 C19.18 19.84, 18.6 20.21, 18 20.53 C17.4 20.84, 16.76 21.12, 16.1 21.34 C15.45 21.55, 14.77 21.72, 14.08 21.83 C13.4 21.94, 12.69 22, 12 22 C11.31 22, 10.6 21.94, 9.92 21.83 C9.23 21.72, 8.55 21.55, 7.9 21.34 C7.24 21.12, 6.6 20.84, 6 20.53 C5.4 20.21, 4.82 19.84, 4.29 19.43 C3.75 19.02, 3.25 18.56, 2.81 18.07 C2.36 17.58, 1.95 17.05, 1.61 16.5 C1.26 15.95, 0.96 15.36, 0.72 14.76 C0.49 14.16, 0.3 13.54, 0.18 12.91 C0.06 12.28, 0 11.64, 0 11 C0 10.36, 0.06 9.72, 0.18 9.09 C0.3 8.46, 0.49 7.84, 0.72 7.24 C0.96 6.64, 1.26 6.05, 1.61 5.5 C1.95 4.95, 2.36 4.42, 2.81 3.93 C3.25 3.44, 3.75 2.98, 4.29 2.57 C4.82 2.16, 5.4 1.79, 6 1.47 C6.6 1.16, 7.24 0.88, 7.9 0.66 C8.55 0.45, 9.23 0.28, 9.92 0.17 C10.6 0.06, 11.31 0, 12 0 C12.69 0, 13.4 0.06, 14.08 0.17 C14.77 0.28, 15.45 0.45, 16.1 0.66 C16.76 0.88, 17.4 1.16, 18 1.47 C18.6 1.79, 19.18 2.16, 19.71 2.57 C20.25 2.98, 20.75 3.44, 21.19 3.93 C21.64 4.42, 22.05 4.95, 22.39 5.5 C22.74 6.05, 23.04 6.64, 23.28 7.24 C23.51 7.84, 23.7 8.46, 23.82 9.09 C23.94 9.72, 23.97 10.68, 24 11 C24.03 11.32, 24.03 10.68, 24 11" stroke="none" stroke-width="0" fill="#827901"></path><path d="M24 11 C24 11.64, 23.94 12.28, 23.82 12.91 C23.7 13.54, 23.51 14.16, 23.28 14.76 C23.04 15.36, 22.74 15.95, 22.39 16.5 C22.05 17.05, 21.64 17.58, 21.19 18.07 C20.75 18.56, 20.25 19.02, 19.71 19.43 C19.18 19.84, 18.6 20.21, 18 20.53 C17.4 20.84, 16.76 21.12, 16.1 21.34 C15.45 21.55, 14.77 21.72, 14.08 21.83 C13.4 21.94, 12.69 22, 12 22 C11.31 22, 10.6 21.94, 9.92 21.83 C9.23 21.72, 8.55 21.55, 7.9 21.34 C7.24 21.12, 6.6 20.84, 6 20.53 C5.4 20.21, 4.82 19.84, 4.29 19.43 C3.75 19.02, 3.25 18.56, 2.81 18.07 C2.36 17.58, 1.95 17.05, 1.61 16.5 C1.26 15.95, 0.96 15.36, 0.72 14.76 C0.49 14.16, 0.3 13.54, 0.18 12.91 C0.06 12.28, 0 11.64, 0 11 C0 10.36, 0.06 9.72, 0.18 9.09 C0.3 8.46, 0.49 7.84, 0.72 7.24 C0.96 6.64, 1.26 6.05, 1.61 5.5 C1.95 4.95, 2.36 4.42, 2.81 3.93 C3.25 3.44, 3.75 2.98, 4.29 2.57 C4.82 2.16, 5.4 1.79, 6 1.47 C6.6 1.16, 7.24 0.88, 7.9 0.66 C8.55 0.45, 9.23 0.28, 9.92 0.17 C10.6 0.06, 11.31 0, 12 0 C12.69 0, 13.4 0.06, 14.08 0.17 C14.77 0.28, 15.45 0.45, 16.1 0.66 C16.76 0.88, 17.4 1.16, 18 1.47 C18.6 1.79, 19.18 2.16, 19.71 2.57 C20.25 2.98, 20.75 3.44, 21.19 3.93 C21.64 4.42, 22.05 4.95, 22.39 5.5 C22.74 6.05, 23.04 6.64, 23.28 7.24 C23.51 7.84, 23.7 8.46, 23.82 9.09 C23.94 9.72, 23.97 10.68, 24 11 C24.03 11.32, 24.03 10.68, 24 11" stroke="#000000" stroke-width="1" fill="none"></path></g><g transform="translate(1023.7821209069456 106.2) rotate(0 49.77000045776367 16.8)"><text x="0" y="0" font-family="Helvetica, Segoe UI Emoji" font-size="28px" fill="#000000" text-anchor="start" style="white-space: pre;" direction="ltr" dominant-baseline="text-before-edge">Medium</text></g><g stroke-linecap="round" transform="translate(986.7821209069456 65.2) rotate(0 12 11)"><path d="M24 11 C24 11.64, 23.94 12.28, 23.82 12.91 C23.7 13.54, 23.51 14.16, 23.28 14.76 C23.04 15.36, 22.74 15.95, 22.39 16.5 C22.05 17.05, 21.64 17.58, 21.19 18.07 C20.75 18.56, 20.25 19.02, 19.71 19.43 C19.18 19.84, 18.6 20.21, 18 20.53 C17.4 20.84, 16.76 21.12, 16.1 21.34 C15.45 21.55, 14.77 21.72, 14.08 21.83 C13.4 21.94, 12.69 22, 12 22 C11.31 22, 10.6 21.94, 9.92 21.83 C9.23 21.72, 8.55 21.55, 7.9 21.34 C7.24 21.12, 6.6 20.84, 6 20.53 C5.4 20.21, 4.82 19.84, 4.29 19.43 C3.75 19.02, 3.25 18.56, 2.81 18.07 C2.36 17.58, 1.95 17.05, 1.61 16.5 C1.26 15.95, 0.96 15.36, 0.72 14.76 C0.49 14.16, 0.3 13.54, 0.18 12.91 C0.06 12.28, 0 11.64, 0 11 C0 10.36, 0.06 9.72, 0.18 9.09 C0.3 8.46, 0.49 7.84, 0.72 7.24 C0.96 6.64, 1.26 6.05, 1.61 5.5 C1.95 4.95, 2.36 4.42, 2.81 3.93 C3.25 3.44, 3.75 2.98, 4.29 2.57 C4.82 2.16, 5.4 1.79, 6 1.47 C6.6 1.16, 7.24 0.88, 7.9 0.66 C8.55 0.45, 9.23 0.28, 9.92 0.17 C10.6 0.06, 11.31 0, 12 0 C12.69 0, 13.4 0.06, 14.08 0.17 C14.77 0.28, 15.45 0.45, 16.1 0.66 C16.76 0.88, 17.4 1.16, 18 1.47 C18.6 1.79, 19.18 2.16, 19.71 2.57 C20.25 2.98, 20.75 3.44, 21.19 3.93 C21.64 4.42, 22.05 4.95, 22.39 5.5 C22.74 6.05, 23.04 6.64, 23.28 7.24 C23.51 7.84, 23.7 8.46, 23.82 9.09 C23.94 9.72, 23.97 10.68, 24 11 C24.03 11.32, 24.03 10.68, 24 11" stroke="none" stroke-width="0" fill="#40c057"></path><path d="M24 11 C24 11.64, 23.94 12.28, 23.82 12.91 C23.7 13.54, 23.51 14.16, 23.28 14.76 C23.04 15.36, 22.74 15.95, 22.39 16.5 C22.05 17.05, 21.64 17.58, 21.19 18.07 C20.75 18.56, 20.25 19.02, 19.71 19.43 C19.18 19.84, 18.6 20.21, 18 20.53 C17.4 20.84, 16.76 21.12, 16.1 21.34 C15.45 21.55, 14.77 21.72, 14.08 21.83 C13.4 21.94, 12.69 22, 12 22 C11.31 22, 10.6 21.94, 9.92 21.83 C9.23 21.72, 8.55 21.55, 7.9 21.34 C7.24 21.12, 6.6 20.84, 6 20.53 C5.4 20.21, 4.82 19.84, 4.29 19.43 C3.75 19.02, 3.25 18.56, 2.81 18.07 C2.36 17.58, 1.95 17.05, 1.61 16.5 C1.26 15.95, 0.96 15.36, 0.72 14.76 C0.49 14.16, 0.3 13.54, 0.18 12.91 C0.06 12.28, 0 11.64, 0 11 C0 10.36, 0.06 9.72, 0.18 9.09 C0.3 8.46, 0.49 7.84, 0.72 7.24 C0.96 6.64, 1.26 6.05, 1.61 5.5 C1.95 4.95, 2.36 4.42, 2.81 3.93 C3.25 3.44, 3.75 2.98, 4.29 2.57 C4.82 2.16, 5.4 1.79, 6 1.47 C6.6 1.16, 7.24 0.88, 7.9 0.66 C8.55 0.45, 9.23 0.28, 9.92 0.17 C10.6 0.06, 11.31 0, 12 0 C12.69 0, 13.4 0.06, 14.08 0.17 C14.77 0.28, 15.45 0.45, 16.1 0.66 C16.76 0.88, 17.4 1.16, 18 1.47 C18.6 1.79, 19.18 2.16, 19.71 2.57 C20.25 2.98, 20.75 3.44, 21.19 3.93 C21.64 4.42, 22.05 4.95, 22.39 5.5 C22.74 6.05, 23.04 6.64, 23.28 7.24 C23.51 7.84, 23.7 8.46, 23.82 9.09 C23.94 9.72, 23.97 10.68, 24 11 C24.03 11.32, 24.03 10.68, 24 11" stroke="#000000" stroke-width="1" fill="none"></path></g><g transform="translate(1025.7821209069457 59.2) rotate(0 28.670000076293945 16.8)"><text x="0" y="0" font-family="Helvetica, Segoe UI Emoji" font-size="28px" fill="#000000" text-anchor="start" style="white-space: pre;" direction="ltr" dominant-baseline="text-before-edge">High</text></g><g transform="translate(983.9621212121214 10) rotate(0 43.81999969482422 16.8)"><text x="0" y="0" font-family="Helvetica, Segoe UI Emoji" font-size="28px" fill="#000000" text-anchor="start" style="white-space: pre;" direction="ltr" dominant-baseline="text-before-edge">Priority</text></g><g stroke-linecap="round" transform="translate(209.96212121212136 634.5) rotate(0 85 55.5)"><path d="M0 0 C61.12 0, 122.23 0, 170 0 M0 0 C45.59 0, 91.19 0, 170 0 M170 0 C170 22.61, 170 45.23, 170 111 M170 0 C170 33.57, 170 67.14, 170 111 M170 111 C103 111, 35.99 111, 0 111 M170 111 C131.76 111, 93.53 111, 0 111 M0 111 C0 70.99, 0 30.98, 0 0 M0 111 C0 85.09, 0 59.18, 0 0" stroke="#2b8a3e" stroke-width="1" fill="none"></path></g><g transform="translate(216.51212426387917 656.4) rotate(0 78.44999694824219 33.60000000000002)"><text x="78.44999694824219" y="0" font-family="Helvetica, Segoe UI Emoji" font-size="28px" fill="#2b8a3e" text-anchor="middle" style="white-space: pre;" direction="ltr" dominant-baseline="text-before-edge">Dependency</text><text x="78.44999694824219" y="33.6" font-family="Helvetica, Segoe UI Emoji" font-size="28px" fill="#2b8a3e" text-anchor="middle" style="white-space: pre;" direction="ltr" dominant-baseline="text-before-edge">Tree</text></g><g stroke-linecap="round"><g transform="translate(251.34060362537224 405.0454545454546) rotate(0 21.62151758674912 110.45454545454544)"><path d="M0 0 C10.51 53.69, 21.02 107.39, 43.24 220.91 M0 0 C10.91 55.75, 21.83 111.5, 43.24 220.91" stroke="#000000" stroke-width="1" fill="none"></path></g></g><mask></mask><g stroke-linecap="round" transform="translate(552.9621212121214 748) rotate(0 72.5 42)"><path d="M0 0 C37.56 0, 75.11 0, 145 0 M0 0 C34.53 0, 69.07 0, 145 0 M145 0 C145 18.38, 145 36.75, 145 84 M145 0 C145 32.6, 145 65.19, 145 84 M145 84 C100.95 84, 56.89 84, 0 84 M145 84 C114.35 84, 83.7 84, 0 84 M0 84 C0 59.68, 0 35.37, 0 0 M0 84 C0 52.55, 0 21.11, 0 0" stroke="#2b8a3e" stroke-width="1" fill="none"></path></g><g transform="translate(567.1021206017698 778) rotate(0 58.36000061035156 12)"><text x="58.36000061035156" y="0" font-family="Helvetica, Segoe UI Emoji" font-size="20px" fill="#2b8a3e" text-anchor="middle" style="white-space: pre;" direction="ltr" dominant-baseline="text-before-edge">Open/Closed</text></g><g stroke-linecap="round" transform="translate(726.4621212121214 783) rotate(0 72.5 42)"><path d="M0 0 C40.28 0, 80.56 0, 145 0 M0 0 C43.29 0, 86.57 0, 145 0 M145 0 C145 28.24, 145 56.47, 145 84 M145 0 C145 23.95, 145 47.89, 145 84 M145 84 C113.97 84, 82.94 84, 0 84 M145 84 C99.41 84, 53.82 84, 0 84 M0 84 C0 64.17, 0 44.34, 0 0 M0 84 C0 65.08, 0 46.15, 0 0" stroke="#c92a2a" stroke-width="1" fill="none"></path></g><g transform="translate(751.9421207543577 813) rotate(0 47.02000045776367 12)"><text x="47.02000045776367" y="0" font-family="Helvetica, Segoe UI Emoji" font-size="20px" fill="#c92a2a" text-anchor="middle" style="white-space: pre;" direction="ltr" dominant-baseline="text-before-edge">Lead Time</text></g><g stroke-linecap="round" transform="translate(900.4621212121214 746) rotate(0 72.5 42)"><path d="M0 0 C47.97 0, 95.94 0, 145 0 M0 0 C56.25 0, 112.49 0, 145 0 M145 0 C145 27.07, 145 54.15, 145 84 M145 0 C145 20.21, 145 40.41, 145 84 M145 84 C99.72 84, 54.44 84, 0 84 M145 84 C87.82 84, 30.65 84, 0 84 M0 84 C0 51.12, 0 18.23, 0 0 M0 84 C0 51.18, 0 18.37, 0 0" stroke="#2b8a3e" stroke-width="1" fill="none"></path></g><g transform="translate(915.3821193810667 764) rotate(0 57.58000183105469 24)"><text x="57.58000183105469" y="0" font-family="Helvetica, Segoe UI Emoji" font-size="20px" fill="#2b8a3e" text-anchor="middle" style="white-space: pre;" direction="ltr" dominant-baseline="text-before-edge">Bug/Feature </text><text x="57.58000183105469" y="24" font-family="Helvetica, Segoe UI Emoji" font-size="20px" fill="#2b8a3e" text-anchor="middle" style="white-space: pre;" direction="ltr" dominant-baseline="text-before-edge">Rates</text></g><g stroke-linecap="round"><g transform="translate(793.3517231616537 723.1401515151513) rotate(0 -45.38960194953245 28.359848484848726)"><path d="M0 0 C-36.14 22.58, -72.28 45.16, -90.78 56.72 M0 0 C-32.3 20.18, -64.59 40.36, -90.78 56.72" stroke="#000000" stroke-width="1" fill="none"></path></g></g><mask></mask><g stroke-linecap="round"><g transform="translate(794.3517231616539 726.6401515151513) rotate(0 -0.3896019495324481 24.359848484848726)"><path d="M0 0 C-0.16 10.27, -0.33 20.55, -0.78 48.72 M0 0 C-0.22 13.85, -0.44 27.7, -0.78 48.72" stroke="#000000" stroke-width="1" fill="none"></path></g></g><mask></mask><g stroke-linecap="round"><g transform="translate(796.3517231616539 726.6401515151513) rotate(0 51.11039805046755 28.859848484848726)"><path d="M0 0 C32.25 18.21, 64.51 36.43, 102.22 57.72 M0 0 C31.23 17.64, 62.46 35.27, 102.22 57.72" stroke="#000000" stroke-width="1" fill="none"></path></g></g><mask></mask></svg>